<svg width="28" height="20" viewBox="0 0 28 20" fill="none" xmlns="http://www.w3.org/2000/svg">
<g clip-path="url(#clip0_122_5108)">
<path d="M9.2793 5.81836C9.49023 5.81836 9.66211 5.88477 9.79492 6.01758C9.92773 6.15039 9.99414 6.32227 9.99414 6.5332C9.99414 6.6543 9.98828 6.7832 9.97656 6.91992C9.96875 7.05273 9.96484 7.20898 9.96484 7.38867C9.96484 7.99023 10.043 8.47852 10.1992 8.85352C10.3594 9.22852 10.6172 9.50391 10.9727 9.67969C11.332 9.85156 11.8105 9.9375 12.4082 9.9375H16.0293L17.4062 10.0195L15.8242 8.58398L14.5176 7.27148C14.4551 7.20508 14.4023 7.12891 14.3594 7.04297C14.3203 6.95703 14.3008 6.85938 14.3008 6.75C14.3008 6.55469 14.3672 6.39062 14.5 6.25781C14.6328 6.125 14.8066 6.05859 15.0215 6.05859C15.209 6.05859 15.3789 6.13281 15.5312 6.28125L19.375 10.125C19.5312 10.2734 19.6094 10.4531 19.6094 10.6641C19.6094 10.875 19.5312 11.0566 19.375 11.209L15.543 15.041C15.3828 15.1973 15.209 15.2754 15.0215 15.2754C14.8066 15.2754 14.6328 15.209 14.5 15.0762C14.3672 14.9434 14.3008 14.7793 14.3008 14.584C14.3008 14.4746 14.3203 14.377 14.3594 14.291C14.3984 14.2012 14.4512 14.123 14.5176 14.0566L15.8242 12.7383L17.4004 11.3145L16.0293 11.3965H12.3086C10.9727 11.3965 10.002 11.0723 9.39648 10.4238C8.79492 9.77148 8.49414 8.76953 8.49414 7.41797C8.49414 7.24609 8.49805 7.08203 8.50586 6.92578C8.51758 6.76953 8.53516 6.62305 8.55859 6.48633C8.57812 6.38086 8.61328 6.27734 8.66406 6.17578C8.71875 6.07031 8.79688 5.98438 8.89844 5.91797C9 5.85156 9.12695 5.81836 9.2793 5.81836Z" fill="#007AFF" fill-opacity="0.5"/>
</g>
<rect x="0.65" y="0.65" width="26.7" height="18.7" rx="9.35" stroke="#007AFF" stroke-opacity="0.5" stroke-width="1.3"/>
<defs>
<clipPath id="clip0_122_5108">
<rect width="28" height="20" rx="10" fill="white"/>
</clipPath>
</defs>
</svg>
