<svg width="28" height="20" viewBox="0 0 28 20" fill="none" xmlns="http://www.w3.org/2000/svg">
<g clip-path="url(#clip0_122_5114)">
<path d="M11.0879 15.3535C10.916 15.3535 10.7539 15.3496 10.6016 15.3418C10.4531 15.3379 10.3105 15.3242 10.1738 15.3008C10.0645 15.2812 9.95703 15.2422 9.85156 15.1836C9.75 15.1289 9.66406 15.0527 9.59375 14.9551C9.52734 14.8574 9.49414 14.7305 9.49414 14.5742C9.49414 14.3633 9.56055 14.1953 9.69336 14.0703C9.82617 13.9453 10 13.8828 10.2148 13.8828C10.332 13.8828 10.457 13.8867 10.5898 13.8945C10.7227 13.9023 10.877 13.9062 11.0527 13.9062C11.6387 13.9062 12.1152 13.8301 12.4824 13.6777C12.8535 13.5254 13.127 13.2754 13.3027 12.9277C13.4785 12.5801 13.5645 12.1113 13.5605 11.5215L13.5547 7.92383L13.6133 6.44141L12.6348 7.52539L10.9004 9.27734C10.834 9.34375 10.7559 9.39648 10.666 9.43555C10.5762 9.47461 10.4785 9.49414 10.373 9.49414C10.1738 9.49414 10.0078 9.42773 9.875 9.29492C9.74609 9.16211 9.68164 8.99023 9.68164 8.7793C9.68164 8.5918 9.75586 8.41992 9.9043 8.26367L13.748 4.41406C13.8965 4.26172 14.0762 4.18555 14.2871 4.18555C14.498 4.18555 14.6777 4.26172 14.8262 4.41406L18.6699 8.26367C18.8223 8.41992 18.8984 8.5918 18.8984 8.7793C18.8984 8.99023 18.832 9.16211 18.6992 9.29492C18.5664 9.42773 18.4004 9.49414 18.2012 9.49414C18.0957 9.49414 17.998 9.47461 17.9082 9.43555C17.8223 9.39648 17.7461 9.34375 17.6797 9.27734L15.9336 7.52539L14.9668 6.44727L15.0195 7.92383V11.6211C15.0195 12.9336 14.6895 13.8828 14.0293 14.4688C13.373 15.0586 12.3926 15.3535 11.0879 15.3535Z" fill="white"/>
<path d="M11.0879 15.3535C10.916 15.3535 10.7539 15.3496 10.6016 15.3418C10.4531 15.3379 10.3105 15.3242 10.1738 15.3008C10.0645 15.2812 9.95703 15.2422 9.85156 15.1836C9.75 15.1289 9.66406 15.0527 9.59375 14.9551C9.52734 14.8574 9.49414 14.7305 9.49414 14.5742C9.49414 14.3633 9.56055 14.1953 9.69336 14.0703C9.82617 13.9453 10 13.8828 10.2148 13.8828C10.332 13.8828 10.457 13.8867 10.5898 13.8945C10.7227 13.9023 10.877 13.9062 11.0527 13.9062C11.6387 13.9062 12.1152 13.8301 12.4824 13.6777C12.8535 13.5254 13.127 13.2754 13.3027 12.9277C13.4785 12.5801 13.5645 12.1113 13.5605 11.5215L13.5547 7.92383L13.6133 6.44141L12.6348 7.52539L10.9004 9.27734C10.834 9.34375 10.7559 9.39648 10.666 9.43555C10.5762 9.47461 10.4785 9.49414 10.373 9.49414C10.1738 9.49414 10.0078 9.42773 9.875 9.29492C9.74609 9.16211 9.68164 8.99023 9.68164 8.7793C9.68164 8.5918 9.75586 8.41992 9.9043 8.26367L13.748 4.41406C13.8965 4.26172 14.0762 4.18555 14.2871 4.18555C14.498 4.18555 14.6777 4.26172 14.8262 4.41406L18.6699 8.26367C18.8223 8.41992 18.8984 8.5918 18.8984 8.7793C18.8984 8.99023 18.832 9.16211 18.6992 9.29492C18.5664 9.42773 18.4004 9.49414 18.2012 9.49414C18.0957 9.49414 17.998 9.47461 17.9082 9.43555C17.8223 9.39648 17.7461 9.34375 17.6797 9.27734L15.9336 7.52539L14.9668 6.44727L15.0195 7.92383V11.6211C15.0195 12.9336 14.6895 13.8828 14.0293 14.4688C13.373 15.0586 12.3926 15.3535 11.0879 15.3535Z" fill="#CCCCCC"/>
</g>
<rect x="0.65" y="0.65" width="26.7" height="18.7" rx="9.35" stroke="#CCCCCC" stroke-width="1.3"/>
<defs>
<clipPath id="clip0_122_5114">
<rect width="28" height="20" rx="10" fill="white"/>
</clipPath>
</defs>
</svg>
